static_grf.mot
version=1
nRows=30
nColumns 19
inDegrees=yes
endheader
time	1_ground_force_vx	1_ground_force_vy	1_ground_force_vz	1_ground_force_px	1_ground_force_py	1_ground_force_pz	1_ground_torque_x	1_ground_torque_y	1_ground_torque_z	2_ground_force_vx	2_ground_force_vy	2_ground_force_vz	2_ground_force_px	2_ground_force_py	2_ground_force_pz	2_ground_torque_x	2_ground_torque_y	2_ground_torque_z
            1.501500	            4.298719	          340.310653	          -33.173674	           -0.281984	            0.006259	           -0.415873	            0.022337	            1.768355	           -0.172380	          -12.542801	          452.183848	           14.242040	           -0.246605	            0.005665	           -0.717808	           -0.059412	            2.141867	            0.067461
            1.502000	            3.931227	          340.672293	          -33.446353	           -0.282052	            0.006260	           -0.415966	            0.019590	            1.697658	           -0.166672	          -12.501227	          453.656869	           14.341132	           -0.246682	            0.005665	           -0.717975	           -0.058238	            2.113404	            0.066810
            1.502500	            4.298588	          341.031716	          -33.170582	           -0.281941	            0.006257	           -0.415368	            0.022126	            1.755386	           -0.170738	          -12.736203	          453.840666	           14.201105	           -0.246385	            0.005667	           -0.718108	           -0.059924	            2.135327	            0.066816
            1.503000	            4.161499	          340.490272	          -33.034988	           -0.282101	            0.006259	           -0.415774	            0.021079	            1.724656	           -0.167329	          -12.780333	          453.103432	           14.339281	           -0.246496	            0.005666	           -0.717924	           -0.061943	            2.196084	            0.069499
            1.503500	            3.977948	          340.850964	          -33.078847	           -0.281933	            0.006258	           -0.415671	            0.019089	            1.635676	           -0.158739	          -12.637851	          452.551958	           14.196465	           -0.246633	            0.005666	           -0.717986	           -0.059543	            2.132174	            0.066886
            1.504000	            4.206968	          340.671167	          -33.171900	           -0.281854	            0.006258	           -0.415542	            0.021011	            1.701414	           -0.165670	          -12.591645	          452.736101	           14.244031	           -0.246548	            0.005666	           -0.717911	           -0.060761	            2.184689	            0.068735
            1.504500	            4.161385	          340.490468	          -33.080848	           -0.282054	            0.006259	           -0.415726	            0.020744	            1.697288	           -0.164903	          -12.545542	          452.921141	           14.056956	           -0.246495	            0.005666	           -0.717954	           -0.058873	            2.125434	            0.065965
            1.505000	            4.252697	          340.671372	          -33.217866	           -0.281845	            0.006259	           -0.415712	            0.021364	            1.711424	           -0.166876	          -12.589774	          452.184683	           13.960491	           -0.246392	            0.005666	           -0.717808	           -0.059181	            2.125608	            0.065625
            1.505500	            4.482319	          340.310295	          -33.082417	           -0.281915	            0.006260	           -0.415970	            0.022987	            1.745221	           -0.169657	          -12.823941	          452.183167	           14.148303	           -0.246605	            0.005665	           -0.717688	           -0.061475	            2.167658	            0.067824
            1.506000	            4.069457	          339.950274	          -33.220503	           -0.282135	            0.006258	           -0.415558	            0.020468	            1.709872	           -0.167092	          -12.963183	          451.814546	           14.100121	           -0.246452	            0.005666	           -0.717805	           -0.063239	            2.204116	            0.068786
            1.506500	            3.977444	          340.491416	          -33.309669	           -0.282125	            0.006260	           -0.415922	            0.019975	            1.709968	           -0.167283	          -12.823215	          451.998525	           14.288430	           -0.246530	            0.005665	           -0.717683	           -0.061736	            2.176101	            0.068790
            1.507000	            4.207522	          340.129553	          -32.990796	           -0.281815	            0.006260	           -0.415939	            0.021399	            1.729864	           -0.167788	          -12.541513	          451.815901	           14.146869	           -0.246408	            0.005665	           -0.717507	           -0.060175	            2.167857	            0.067878
            1.507500	            3.931862	          340.310779	          -33.218616	           -0.282098	            0.006260	           -0.415941	            0.019930	            1.724994	           -0.168381	          -12.684159	          452.368652	           13.914260	           -0.246554	            0.005665	           -0.717649	           -0.060182	            2.146339	            0.066019
            1.508000	            4.160897	          340.671551	          -33.263498	           -0.282419	            0.006258	           -0.415609	            0.020424	            1.672176	           -0.163273	          -12.684036	          452.367648	           14.195828	           -0.246349	            0.005666	           -0.717816	           -0.060354	            2.152499	            0.067548
            1.508500	            4.069454	          341.211710	          -33.123381	           -0.281953	            0.006258	           -0.415447	            0.020590	            1.726386	           -0.167590	          -12.586993	          451.447116	           14.239431	           -0.246630	            0.005665	           -0.717704	           -0.060419	            2.167014	            0.068351
            1.509000	            4.115836	          340.129535	          -32.990568	           -0.282156	            0.006260	           -0.415994	            0.021011	            1.736342	           -0.168415	          -12.635336	          451.816567	           13.865341	           -0.246405	            0.005665	           -0.717508	           -0.060514	            2.163853	            0.066404
            1.509500	            4.069618	          340.310412	          -33.127245	           -0.281863	            0.006258	           -0.415653	            0.020507	            1.714877	           -0.166933	          -12.589027	          451.999873	           14.147546	           -0.246401	            0.005665	           -0.717512	           -0.059742	            2.144980	            0.067138
            1.510000	            4.207195	          340.670773	          -33.080189	           -0.281857	            0.006258	           -0.415641	            0.020964	            1.697488	           -0.164831	          -12.728913	          451.815224	           14.146949	           -0.246530	            0.005665	           -0.717673	           -0.059463	            2.110652	            0.066087
            1.510500	            4.298735	          340.851223	          -33.125495	           -0.281929	            0.006258	           -0.415615	            0.021419	            1.698354	           -0.165054	          -12.635836	          451.999369	           14.241422	           -0.246402	            0.005666	           -0.717721	           -0.060014	            2.146783	            0.067640
            1.511000	            4.115575	          340.310224	          -33.081507	           -0.281701	            0.006259	           -0.415703	            0.020400	            1.686882	           -0.163982	          -12.779044	          452.735424	           14.244110	           -0.246300	            0.005666	           -0.717832	           -0.062658	            2.219831	            0.069841
            1.511500	            4.023371	          339.410027	          -33.360280	           -0.282331	            0.006260	           -0.415942	            0.020141	            1.699098	           -0.167003	          -12.781120	          453.288577	           14.058369	           -0.246320	            0.005668	           -0.718219	           -0.061205	            2.170661	            0.067321
            1.512000	            4.206707	          340.851795	          -33.262839	           -0.281834	            0.006257	           -0.415414	            0.020696	            1.676886	           -0.163643	          -12.777133	          452.183671	           14.054427	           -0.246482	            0.005665	           -0.717607	           -0.062806	            2.222703	            0.069084
            1.512500	            4.252909	          340.130348	          -33.174333	           -0.281979	            0.006259	           -0.415796	            0.021319	            1.704973	           -0.166293	          -12.728933	          451.815392	           14.100021	           -0.246407	            0.005666	           -0.717716	           -0.060577	            2.150178	            0.067102
            1.513000	            4.023107	          340.852153	          -33.354096	           -0.281841	            0.006258	           -0.415592	            0.020382	            1.726840	           -0.168980	          -12.777756	          452.367477	           14.148940	           -0.246350	            0.005666	           -0.717818	           -0.061658	            2.182867	            0.068275
            1.513500	            3.886882	          339.948862	          -32.899060	           -0.281947	            0.006259	           -0.415908	            0.019399	            1.696648	           -0.164196	          -12.776365	          451.998694	           14.288410	           -0.246113	            0.005667	           -0.717724	           -0.061760	            2.184933	            0.069069
            1.514000	            4.252211	          339.590958	          -33.497640	           -0.281865	            0.006261	           -0.416146	            0.022208	            1.773563	           -0.174946	          -12.542863	          452.184350	           14.101255	           -0.246312	            0.005667	           -0.717933	           -0.059532	            2.146183	            0.066928
            1.514500	            4.207393	          339.589179	          -33.084826	           -0.281822	            0.006259	           -0.415873	            0.021945	            1.771254	           -0.172566	          -12.496013	          452.184519	           14.101235	           -0.246227	            0.005666	           -0.717724	           -0.058729	            2.125192	            0.066273
            1.515000	            4.206333	          341.032681	          -33.399630	           -0.281734	            0.006256	           -0.415179	            0.021394	            1.734532	           -0.169874	          -12.682748	          451.999702	           14.100658	           -0.246316	            0.005666	           -0.717803	           -0.059654	            2.126017	            0.066324
            1.515500	            4.161484	          339.949702	          -33.083167	           -0.281744	            0.006259	           -0.415872	            0.020767	            1.696440	           -0.165094	          -12.543548	          452.368658	           14.054984	           -0.246432	            0.005665	           -0.717649	           -0.060098	            2.167352	            0.067339
            1.516000	            4.114925	          340.131108	          -33.357416	           -0.281817	            0.006259	           -0.415875	            0.021074	            1.741915	           -0.170833	          -12.543548	          452.368658	           14.054984	           -0.246222	            0.005667	           -0.717980	           -0.059546	            2.147442	            0.066720
